<?xml version="1.0" encoding="utf-8"?>
<!-- Generator: Adobe Illustrator 27.7.0, SVG Export Plug-In . SVG Version: 6.00 Build 0)  -->
<svg version="1.1" id="Layer_1" xmlns="http://www.w3.org/2000/svg" xmlns:xlink="http://www.w3.org/1999/xlink" x="0px" y="0px"
	 viewBox="0 0 175 75" style="enable-background:new 0 0 175 75;" xml:space="preserve">
<style type="text/css">
	.st0{fill:#69C4D0;}
	.st1{fill:#E83658;}
</style>
<g>
	<path d="M119.54,41.67c0.02,0.77,0.37,1.5,1.08,2.13c0.7,0.63,1.58,0.93,2.63,0.93c2.08,0,3.25-1.1,3.48-2.53
		c0.12-1.7-1.13-2.68-2.93-3.08l-2.23-0.55c-2.8-0.73-4.2-2.23-4.2-4.5c0-1.43,0.55-2.58,1.65-3.48c1.1-0.93,2.4-1.37,3.93-1.37
		c1.6,0,2.93,0.47,3.98,1.4c1.05,0.93,1.58,2.13,1.58,3.65h-2.33c0-1.7-1.35-2.83-3.25-2.83c-0.88,0-1.63,0.25-2.27,0.73
		c-0.63,0.47-0.95,1.1-0.95,1.87c0,1.2,0.83,2,2.45,2.4l2.25,0.55c3.28,0.83,4.93,2.7,4.6,5.4c-0.15,1.3-0.75,2.38-1.78,3.23
		c-1.03,0.85-2.35,1.28-3.98,1.28c-1.73,0-3.15-0.53-4.3-1.55c-1.15-1.05-1.73-2.27-1.73-3.68L119.54,41.67L119.54,41.67z
		 M133.32,46.64h-2.27V28.61h2.28v8.11c0.32-0.65,0.85-1.15,1.6-1.47c0.78-0.35,1.53-0.53,2.25-0.53c2.93,0,4.75,1.9,4.73,5.18v6.75
		h-2.28v-6.6c0-1.9-1.12-3.1-2.75-3.1c-0.93,0-1.75,0.27-2.48,0.85c-0.73,0.55-1.08,1.4-1.08,2.55L133.32,46.64L133.32,46.64z
		 M145.34,36.39c1.17-1.13,2.63-1.68,4.35-1.68c1.73,0,3.18,0.55,4.35,1.68c1.17,1.12,1.78,2.58,1.78,4.38c0,1.8-0.6,3.28-1.8,4.43
		c-1.17,1.13-2.63,1.7-4.33,1.7s-3.15-0.58-4.33-1.7c-1.17-1.12-1.78-2.6-1.78-4.43C143.59,38.96,144.16,37.51,145.34,36.39
		L145.34,36.39z M152.42,37.99c-0.73-0.7-1.65-1.05-2.73-1.05c-1.08,0-2,0.35-2.75,1.05c-0.72,0.7-1.1,1.63-1.1,2.78
		c0,1.17,0.38,2.13,1.1,2.85c0.75,0.73,1.68,1.08,2.75,1.08c1.08,0,2-0.35,2.73-1.08c0.75-0.73,1.12-1.68,1.12-2.85
		C153.54,39.61,153.17,38.69,152.42,37.99z M159.98,34.96v1.83c0.78-1.3,2.4-2.08,4.08-2.08c1.63,0,3.03,0.58,4.15,1.7
		c1.12,1.12,1.7,2.6,1.7,4.43c0,1.8-0.58,3.25-1.7,4.38c-1.13,1.13-2.5,1.68-4.15,1.68c-1.7,0-3.35-0.7-4.08-2v7.43h-2.27V34.96
		L159.98,34.96L159.98,34.96z M161.15,43.66c0.73,0.66,1.69,1.02,2.68,1c2.18,0,3.78-1.53,3.78-3.8c0-1.15-0.38-2.1-1.1-2.83
		c-0.72-0.73-1.6-1.1-2.68-1.1c-1.08,0-1.98,0.35-2.73,1.08c-0.72,0.7-1.1,1.65-1.1,2.85C160,42.04,160.38,42.99,161.15,43.66z"/>
	<path class="st0" d="M14.17,33.12v-1.08c-0.36-0.05-0.72-0.08-1.08-0.08c-4.42,0-7.99,3.59-8,8c0,2.61,1.27,5.06,3.42,6.55
		c-0.04-0.04-0.07-0.08-0.11-0.12c-1.26-1.42-1.99-3.28-1.99-5.33C6.39,36.74,9.85,33.21,14.17,33.12L14.17,33.12z"/>
	<path class="st0" d="M14.36,44.75c1.98-0.01,3.59-1.57,3.68-3.55l0.01-17.39l3.16,0l-0.01-0.04c-0.07-0.36-0.1-0.73-0.1-1.1h-4.35
		L16.74,40.1c-0.07,1.96-1.68,3.52-3.65,3.52c-0.61,0-1.19-0.15-1.7-0.42C12.06,44.12,13.14,44.75,14.36,44.75z M27.14,29.77v-1.04
		c-1.21,0-2.35-0.36-3.29-0.98C24.69,28.72,25.84,29.49,27.14,29.77L27.14,29.77z"/>
	<path class="st1" d="M23.84,27.75c-0.96-1.1-1.49-2.51-1.49-3.96h-1.2C21.47,25.44,22.48,26.86,23.84,27.75L23.84,27.75z
		 M13.09,36.28c-2.03,0.02-3.67,1.66-3.69,3.69c0,1.4,0.83,2.62,1.99,3.23c-0.45-0.62-0.69-1.37-0.69-2.13
		c0-2.02,1.64-3.65,3.65-3.65c0.37,0,0.74,0.06,1.08,0.17v-4.44c-0.36-0.05-0.72-0.08-1.08-0.08c-0.06,0-0.12,0-0.19,0l-0.03,0
		l0,3.35C13.8,36.32,13.44,36.27,13.09,36.28z"/>
	<path class="st1" d="M27.14,29.7l-0.02,0l-0.01,3.35c-2.17,0-4.28-0.69-6.04-1.96l0,8.88c0.01,4.4-3.55,7.96-7.94,7.97
		c-0.01,0-0.02,0-0.02,0c-1.64,0.01-3.24-0.48-4.59-1.42c1.51,1.63,3.63,2.55,5.85,2.55c4.42,0,8-3.58,8-8v-8.83
		c1.76,1.27,3.88,1.95,6.05,1.94v-4.35C27.97,29.83,27.55,29.78,27.14,29.7z"/>
	<path d="M21.09,39.97v-8.84c1.76,1.27,3.88,1.95,6.05,1.94V29.7c-1.28-0.28-2.44-0.96-3.29-1.95c-1.39-0.9-2.35-2.34-2.65-3.96
		h-3.18L18,41.2c-0.07,1.96-1.68,3.52-3.65,3.52c-1.17,0-2.28-0.57-2.96-1.52c-1.78-0.94-2.47-3.15-1.53-4.94
		c0.63-1.2,1.87-1.95,3.23-1.95c0.38,0,0.74,0.06,1.08,0.17v-3.41c-4.34,0.11-7.81,3.65-7.81,7.99c0,2.1,0.82,4.02,2.15,5.45
		c1.34,0.94,2.94,1.45,4.59,1.45C17.51,47.96,21.09,44.38,21.09,39.97L21.09,39.97L21.09,39.97z M32.48,29.34h12.87l-1.18,3.68
		l-3.34,0v13.61h-4.16V33.03l-4.19,0.01L32.48,29.34L32.48,29.34z M66.44,29.34h13.17l-1.18,3.68l-3.63,0v13.61h-4.17V33.03
		l-4.19,0.01L66.44,29.34L66.44,29.34z M46.14,34.85h4.13l0,11.8h-4.1L46.14,34.85L46.14,34.85z M51.9,29.29h4.12v8.06l4.08-4.01
		h4.92l-5.17,5.02l5.79,8.29h-4.54l-3.86-5.74l-1.22,1.19v4.56h-4.12L51.9,29.29L51.9,29.29L51.9,29.29z M95.59,29.29h4.12v8.06
		l4.09-4.01h4.92l-5.17,5.02l5.79,8.29h-4.54l-3.86-5.74l-1.22,1.19v4.56h-4.12L95.59,29.29L95.59,29.29L95.59,29.29z M48.2,33.5
		c1.15,0,2.08-0.93,2.08-2.08c0-1.15-0.93-2.08-2.08-2.08h0c-1.15,0-2.08,0.93-2.08,2.08C46.13,32.57,47.06,33.5,48.2,33.5z"/>
	<path class="st0" d="M79.09,39.58c0-3.69,2.84-6.75,6.51-7.04c-0.21-0.02-0.41-0.02-0.62-0.02c-3.9,0-7.06,3.16-7.06,7.06
		c0,3.9,3.16,7.06,7.06,7.06l0,0c0.19,0,0.44-0.01,0.62-0.02C81.92,46.33,79.09,43.27,79.09,39.58L79.09,39.58z"/>
	<path class="st1" d="M87.2,32.52c-0.19,0-0.44,0.01-0.62,0.02c3.89,0.31,6.79,3.71,6.48,7.6c-0.28,3.46-3.02,6.2-6.48,6.48
		c0.18,0.02,0.44,0.02,0.62,0.02c3.9,0,7.06-3.16,7.06-7.06S91.1,32.52,87.2,32.52z"/>
	<path d="M86.08,32.52c-3.9,0-7.06,3.16-7.06,7.06c0,3.9,3.16,7.06,7.06,7.06c0,0,0,0,0,0c3.9,0,7.06-3.16,7.06-7.06
		C93.15,35.68,89.99,32.52,86.08,32.52z M86.08,43.01c-1.9,0-3.43-1.54-3.43-3.43c0-1.9,1.54-3.43,3.43-3.43l0,0
		c1.9,0,3.43,1.54,3.43,3.43C89.52,41.48,87.98,43.01,86.08,43.01z"/>
</g>
</svg>
